<svg xmlns="http://www.w3.org/2000/svg" xmlns:xlink="http://www.w3.org/1999/xlink" width="212" zoomAndPan="magnify" viewBox="0 0 159 94.499997" height="126" preserveAspectRatio="xMidYMid meet" version="1.0"><defs><g/></defs><g fill="#ffffff" fill-opacity="1"><g transform="translate(46.371624, 32.973819)"><g><path d="M 3.609375 0 L 3.609375 -1.171875 L 4.125 -1.171875 C 4.476562 -1.171875 4.8125 -1.210938 5.125 -1.296875 C 5.445312 -1.390625 5.703125 -1.570312 5.890625 -1.84375 C 6.078125 -2.125 6.171875 -2.539062 6.171875 -3.09375 L 6.171875 -19.015625 L 3.890625 -19.015625 C 3.203125 -19.015625 2.710938 -18.773438 2.421875 -18.296875 C 2.140625 -17.816406 1.960938 -17.265625 1.890625 -16.640625 L 1.765625 -15.4375 L 0.453125 -15.4375 L 0.578125 -20.421875 L 14.546875 -20.421875 L 14.671875 -15.4375 L 13.359375 -15.4375 L 13.203125 -16.640625 C 13.148438 -17.265625 12.976562 -17.816406 12.6875 -18.296875 C 12.40625 -18.773438 11.90625 -19.015625 11.1875 -19.015625 L 8.890625 -19.015625 L 8.890625 -3.234375 C 8.890625 -2.640625 8.976562 -2.191406 9.15625 -1.890625 C 9.34375 -1.597656 9.59375 -1.40625 9.90625 -1.3125 C 10.21875 -1.21875 10.566406 -1.171875 10.953125 -1.171875 L 11.46875 -1.171875 L 11.46875 0 Z M 3.609375 0 "/></g></g></g><g fill="#ffffff" fill-opacity="1"><g transform="translate(61.526887, 32.973819)"><g><path d="M 7.09375 0.28125 C 5.238281 0.28125 3.8125 -0.398438 2.8125 -1.765625 C 1.8125 -3.140625 1.3125 -5.066406 1.3125 -7.546875 C 1.3125 -10.234375 1.789062 -12.25 2.75 -13.59375 C 3.71875 -14.9375 5.078125 -15.609375 6.828125 -15.609375 C 8.453125 -15.609375 9.722656 -15.023438 10.640625 -13.859375 C 11.566406 -12.703125 12.03125 -10.988281 12.03125 -8.71875 L 12.03125 -7.515625 L 3.921875 -7.515625 C 3.941406 -5.398438 4.257812 -3.84375 4.875 -2.84375 C 5.488281 -1.84375 6.390625 -1.34375 7.578125 -1.34375 C 8.410156 -1.34375 9.113281 -1.5625 9.6875 -2 C 10.257812 -2.4375 10.691406 -2.953125 10.984375 -3.546875 C 11.117188 -3.472656 11.238281 -3.359375 11.34375 -3.203125 C 11.457031 -3.046875 11.515625 -2.835938 11.515625 -2.578125 C 11.515625 -2.191406 11.359375 -1.773438 11.046875 -1.328125 C 10.734375 -0.878906 10.25 -0.5 9.59375 -0.1875 C 8.9375 0.125 8.101562 0.28125 7.09375 0.28125 Z M 9.4375 -8.984375 C 9.414062 -10.523438 9.210938 -11.769531 8.828125 -12.71875 C 8.453125 -13.675781 7.796875 -14.15625 6.859375 -14.15625 C 5.941406 -14.15625 5.238281 -13.707031 4.75 -12.8125 C 4.269531 -11.914062 4.003906 -10.640625 3.953125 -8.984375 Z M 9.4375 -8.984375 "/></g></g></g><g fill="#ffffff" fill-opacity="1"><g transform="translate(74.737696, 32.973819)"><g><path d="M 4.953125 0.28125 C 4.242188 0.28125 3.609375 0.113281 3.046875 -0.21875 C 2.484375 -0.550781 2.035156 -1.054688 1.703125 -1.734375 C 1.367188 -2.410156 1.203125 -3.265625 1.203125 -4.296875 C 1.203125 -5.816406 1.660156 -6.929688 2.578125 -7.640625 C 3.492188 -8.359375 4.882812 -8.753906 6.75 -8.828125 L 8.75 -8.921875 L 8.75 -10.671875 C 8.75 -11.367188 8.703125 -11.976562 8.609375 -12.5 C 8.515625 -13.03125 8.304688 -13.445312 7.984375 -13.75 C 7.671875 -14.0625 7.203125 -14.21875 6.578125 -14.21875 C 5.960938 -14.21875 5.503906 -14.082031 5.203125 -13.8125 C 4.898438 -13.539062 4.695312 -13.171875 4.59375 -12.703125 C 4.488281 -12.242188 4.4375 -11.707031 4.4375 -11.09375 C 3.6875 -11.09375 3.125 -11.234375 2.75 -11.515625 C 2.382812 -11.804688 2.203125 -12.257812 2.203125 -12.875 C 2.203125 -13.457031 2.394531 -13.953125 2.78125 -14.359375 C 3.175781 -14.773438 3.710938 -15.085938 4.390625 -15.296875 C 5.066406 -15.503906 5.851562 -15.609375 6.75 -15.609375 C 8.25 -15.609375 9.378906 -15.234375 10.140625 -14.484375 C 10.910156 -13.734375 11.296875 -12.453125 11.296875 -10.640625 L 11.296875 -3.234375 C 11.296875 -2.703125 11.347656 -2.285156 11.453125 -1.984375 C 11.554688 -1.691406 11.71875 -1.484375 11.9375 -1.359375 C 12.15625 -1.234375 12.457031 -1.171875 12.84375 -1.171875 L 12.890625 -1.171875 L 12.890625 0 L 9.375 0 L 8.984375 -2.484375 L 8.8125 -2.484375 C 8.46875 -1.953125 8.128906 -1.472656 7.796875 -1.046875 C 7.460938 -0.628906 7.070312 -0.300781 6.625 -0.0625 C 6.1875 0.164062 5.628906 0.28125 4.953125 0.28125 Z M 5.6875 -1.28125 C 6.332031 -1.28125 6.878906 -1.457031 7.328125 -1.8125 C 7.773438 -2.164062 8.128906 -2.660156 8.390625 -3.296875 C 8.648438 -3.941406 8.78125 -4.664062 8.78125 -5.46875 L 8.78125 -7.8125 L 7.3125 -7.71875 C 6.4375 -7.675781 5.738281 -7.515625 5.21875 -7.234375 C 4.707031 -6.953125 4.347656 -6.550781 4.140625 -6.03125 C 3.929688 -5.519531 3.828125 -4.882812 3.828125 -4.125 C 3.828125 -3.53125 3.890625 -3.019531 4.015625 -2.59375 C 4.140625 -2.175781 4.34375 -1.851562 4.625 -1.625 C 4.914062 -1.394531 5.269531 -1.28125 5.6875 -1.28125 Z M 5.6875 -1.28125 "/></g></g></g><g fill="#ffffff" fill-opacity="1"><g transform="translate(88.663376, 32.973819)"><g><path d="M 0.625 0 L 0.625 -1.171875 L 1 -1.171875 C 1.363281 -1.171875 1.679688 -1.21875 1.953125 -1.3125 C 2.234375 -1.40625 2.441406 -1.597656 2.578125 -1.890625 C 2.722656 -2.191406 2.796875 -2.640625 2.796875 -3.234375 L 2.796875 -12.1875 C 2.796875 -12.75 2.71875 -13.171875 2.5625 -13.453125 C 2.414062 -13.742188 2.195312 -13.929688 1.90625 -14.015625 C 1.625 -14.109375 1.3125 -14.15625 0.96875 -14.15625 L 0.890625 -14.15625 L 0.890625 -15.328125 L 4.921875 -15.328125 L 5.234375 -12.984375 L 5.375 -12.984375 C 5.8125 -13.992188 6.332031 -14.679688 6.9375 -15.046875 C 7.550781 -15.421875 8.269531 -15.609375 9.09375 -15.609375 C 9.625 -15.609375 10.125 -15.519531 10.59375 -15.34375 C 11.0625 -15.175781 11.472656 -14.890625 11.828125 -14.484375 C 12.179688 -14.085938 12.453125 -13.550781 12.640625 -12.875 L 12.78125 -12.875 C 13.21875 -13.9375 13.757812 -14.65625 14.40625 -15.03125 C 15.0625 -15.414062 15.804688 -15.609375 16.640625 -15.609375 C 17.898438 -15.609375 18.878906 -15.160156 19.578125 -14.265625 C 20.285156 -13.367188 20.640625 -11.941406 20.640625 -9.984375 L 20.640625 -3.234375 C 20.640625 -2.640625 20.71875 -2.191406 20.875 -1.890625 C 21.039062 -1.597656 21.257812 -1.40625 21.53125 -1.3125 C 21.800781 -1.21875 22.113281 -1.171875 22.46875 -1.171875 L 22.5625 -1.171875 L 22.5625 0 L 18.09375 0 L 18.09375 -9.890625 C 18.09375 -11.128906 17.914062 -12.09375 17.5625 -12.78125 C 17.21875 -13.46875 16.609375 -13.8125 15.734375 -13.8125 C 15.054688 -13.8125 14.519531 -13.613281 14.125 -13.21875 C 13.738281 -12.832031 13.457031 -12.3125 13.28125 -11.65625 C 13.113281 -11.007812 13.03125 -10.304688 13.03125 -9.546875 L 13.03125 -3.265625 C 13.03125 -2.648438 13.109375 -2.191406 13.265625 -1.890625 C 13.421875 -1.597656 13.640625 -1.40625 13.921875 -1.3125 C 14.210938 -1.21875 14.53125 -1.171875 14.875 -1.171875 L 14.953125 -1.171875 L 14.953125 0 L 10.515625 0 L 10.515625 -9.890625 C 10.515625 -11.128906 10.335938 -12.09375 9.984375 -12.78125 C 9.640625 -13.46875 9.03125 -13.8125 8.15625 -13.8125 C 7.46875 -13.8125 6.921875 -13.597656 6.515625 -13.171875 C 6.117188 -12.742188 5.820312 -12.175781 5.625 -11.46875 C 5.4375 -10.757812 5.34375 -9.992188 5.34375 -9.171875 L 5.34375 -3.09375 C 5.34375 -2.539062 5.429688 -2.125 5.609375 -1.84375 C 5.796875 -1.570312 6.035156 -1.390625 6.328125 -1.296875 C 6.628906 -1.210938 6.953125 -1.171875 7.296875 -1.171875 L 7.375 -1.171875 L 7.375 0 Z M 0.625 0 "/></g></g></g><g fill="#ffffff" fill-opacity="1"><g transform="translate(111.884366, 32.973819)"><g/></g></g><g fill="#ffffff" fill-opacity="1"><g transform="translate(9.704305, 72.648733)"><g><path d="M 11.171875 -0.65625 C 11.171875 -0.15625 9.703125 0.09375 6.765625 0.09375 C 3.796875 0.09375 2.3125 -0.140625 2.3125 -0.609375 L 2.3125 -30.828125 C 2.3125 -31.910156 2.882812 -32.453125 4.03125 -32.453125 L 12.890625 -32.453125 C 21.015625 -32.453125 25.078125 -29.285156 25.078125 -22.953125 C 25.078125 -21.035156 24.707031 -19.296875 23.96875 -17.734375 C 23.226562 -16.171875 22.175781 -14.925781 20.8125 -14 L 26.65625 -4.265625 C 26.40625 -3.523438 25.601562 -2.675781 24.25 -1.71875 C 22.394531 -0.382812 20.863281 0.28125 19.65625 0.28125 C 18.445312 0.28125 17.550781 -0.148438 16.96875 -1.015625 L 12.609375 -11.171875 L 11.171875 -11.171875 Z M 11.171875 -24.25 L 11.171875 -17.296875 L 11.40625 -17.296875 C 14.34375 -17.296875 15.8125 -18.515625 15.8125 -20.953125 C 15.8125 -22.066406 15.523438 -22.894531 14.953125 -23.4375 C 14.378906 -23.976562 13.441406 -24.25 12.140625 -24.25 Z M 11.171875 -24.25 "/></g></g></g><g fill="#ffffff" fill-opacity="1"><g transform="translate(37.056838, 72.648733)"><g><path d="M 24.109375 0.09375 C 21.421875 0.09375 19.96875 -0.335938 19.75 -1.203125 L 18.21875 -7.1875 L 10.84375 -7.1875 L 9.5 -1.4375 C 9.3125 -0.476562 7.828125 0 5.046875 0 C 3.566406 0 2.472656 -0.0820312 1.765625 -0.25 C 1.054688 -0.425781 0.703125 -0.5625 0.703125 -0.65625 L 8.90625 -32.03125 C 8.90625 -32.28125 11.019531 -32.40625 15.25 -32.40625 C 19.488281 -32.40625 21.609375 -32.28125 21.609375 -32.03125 L 29.625 -0.609375 C 29.625 -0.390625 28.910156 -0.21875 27.484375 -0.09375 C 26.066406 0.03125 24.941406 0.09375 24.109375 0.09375 Z M 12 -13.078125 L 16.875 -13.078125 L 14.78125 -22.671875 L 14.515625 -22.671875 Z M 12 -13.078125 "/></g></g></g><g fill="#ffffff" fill-opacity="1"><g transform="translate(67.422792, 72.648733)"><g><path d="M 34.765625 0.046875 C 32.015625 0.046875 30.640625 -0.257812 30.640625 -0.875 L 29.671875 -19.46875 L 24.015625 -0.65625 C 23.890625 -0.28125 22.835938 -0.09375 20.859375 -0.09375 C 18.878906 -0.09375 17.859375 -0.265625 17.796875 -0.609375 L 11.953125 -19.65625 L 11.3125 -1.15625 C 11.28125 -0.695312 10.691406 -0.378906 9.546875 -0.203125 C 8.398438 -0.0351562 7.445312 0.046875 6.6875 0.046875 C 5.9375 0.046875 5.207031 0 4.5 -0.09375 C 3.007812 -0.3125 2.28125 -0.695312 2.3125 -1.25 L 3.390625 -31.390625 C 3.390625 -32.128906 5.273438 -32.5 9.046875 -32.5 C 10.148438 -32.5 11.503906 -32.410156 13.109375 -32.234375 C 14.722656 -32.066406 15.625 -31.738281 15.8125 -31.25 L 21 -16.640625 L 25.546875 -31.296875 C 25.828125 -32.097656 27.957031 -32.5 31.9375 -32.5 C 33.082031 -32.5 34.453125 -32.410156 36.046875 -32.234375 C 37.640625 -32.066406 38.4375 -31.769531 38.4375 -31.34375 L 39.78125 -0.921875 C 39.78125 -0.585938 39.175781 -0.34375 37.96875 -0.1875 C 36.757812 -0.03125 35.691406 0.046875 34.765625 0.046875 Z M 34.765625 0.046875 "/></g></g></g><g fill="#ffffff" fill-opacity="1"><g transform="translate(109.471522, 72.648733)"><g><path d="M 24.109375 0.09375 C 21.421875 0.09375 19.96875 -0.335938 19.75 -1.203125 L 18.21875 -7.1875 L 10.84375 -7.1875 L 9.5 -1.4375 C 9.3125 -0.476562 7.828125 0 5.046875 0 C 3.566406 0 2.472656 -0.0820312 1.765625 -0.25 C 1.054688 -0.425781 0.703125 -0.5625 0.703125 -0.65625 L 8.90625 -32.03125 C 8.90625 -32.28125 11.019531 -32.40625 15.25 -32.40625 C 19.488281 -32.40625 21.609375 -32.28125 21.609375 -32.03125 L 29.625 -0.609375 C 29.625 -0.390625 28.910156 -0.21875 27.484375 -0.09375 C 26.066406 0.03125 24.941406 0.09375 24.109375 0.09375 Z M 12 -13.078125 L 16.875 -13.078125 L 14.78125 -22.671875 L 14.515625 -22.671875 Z M 12 -13.078125 "/></g></g></g><g fill="#ffffff" fill-opacity="1"><g transform="translate(139.843855, 72.648733)"><g/></g></g><g fill="#ffffff" fill-opacity="1"><g transform="translate(139.843855, 72.648733)"><g/></g></g><g fill="#ffffff" fill-opacity="1"><g transform="translate(148.563344, 72.648733)"><g/></g></g></svg>